<svg width="20" height="19" viewBox="0 0 20 19" fill="none" xmlns="http://www.w3.org/2000/svg">
<path d="M2.74993 18.7002C2.44627 18.7002 2.20006 18.4539 2.20006 18.1503L1.76012 13.7503L1.75994 13.7502C0.63789 12.3425 0.0184329 10.6003 0 8.80016C0 3.94916 4.39994 0 9.9 0C15.4001 0 19.8 3.94897 19.8 8.80016C19.8 13.6512 15.4001 17.6003 9.9 17.6003C8.9076 17.6014 7.91962 17.4683 6.96295 17.2044L2.93705 18.6673C2.8772 18.6892 2.81385 18.7004 2.74995 18.7002L2.74993 18.7002ZM9.90009 1.10031C5.04909 1.10031 1.09993 4.55428 1.09993 8.80015C1.1178 10.4091 1.68884 11.9628 2.71698 13.2003C2.78401 13.2819 2.826 13.3813 2.83797 13.4863L3.22303 17.3472L6.75394 16.0601C6.8648 16.024 6.98413 16.024 7.09499 16.0601C8.00395 16.341 8.94864 16.489 9.89999 16.5002C14.751 16.5002 18.7001 13.0463 18.7001 8.8004C18.7001 4.55425 14.751 1.10009 9.89999 1.10009L9.90009 1.10031Z" fill="black"/>
<path d="M10.4502 11.0004C10.2186 11.0002 10.012 10.8551 9.93314 10.6374L9.04223 8.08546L5.19217 9.99936C5.06124 10.0782 4.90323 10.099 4.75628 10.0566C4.60951 10.0143 4.48687 9.91281 4.41781 9.77635C4.34875 9.6399 4.33973 9.48079 4.39276 9.33752C4.4458 9.19406 4.5561 9.07915 4.69716 9.02041L9.0971 6.82034C9.24442 6.73618 9.4225 6.72459 9.57937 6.78904C9.73627 6.85368 9.85468 6.987 9.90017 7.15035L10.8022 9.72444L14.6522 7.94239C14.9286 7.81478 15.2561 7.93558 15.3837 8.21199C15.5113 8.48841 15.3907 8.81585 15.1143 8.94346L10.7143 10.9894H10.7141C10.6283 11.0144 10.5377 11.0183 10.4502 11.0004Z" fill="black"/>
</svg>
