<svg width="25" height="25" viewBox="0 0 25 25" fill="none" xmlns="http://www.w3.org/2000/svg">
<path d="M19.6252 4.00001H5.37524C4.0661 4.00001 3.00024 5.06573 3.00024 6.37501V15.2814C3.00024 16.5906 4.0661 17.6564 5.37524 17.6564H12.5002V20.0314C12.5002 20.2838 12.6605 20.5094 12.898 20.5927C12.9604 20.6132 13.0287 20.6252 13.0939 20.6252C13.272 20.6252 13.4411 20.5451 13.5569 20.4025L15.7539 17.6564H19.625C20.9343 17.6564 22.0001 16.5906 22.0001 15.2814V6.375C22.0001 5.06586 20.9344 4 19.6251 4L19.6252 4.00001ZM20.8129 15.2814C20.8129 15.9376 20.2815 16.4688 19.6255 16.4688H15.4691C15.2882 16.4688 15.1187 16.5518 15.0061 16.6915L13.6879 18.3392V17.0627C13.6879 16.7361 13.4236 16.469 13.0941 16.469L5.37553 16.4688C4.71942 16.4688 4.18817 15.9374 4.18817 15.2815L4.18789 6.37503C4.18789 5.71892 4.71929 5.18767 5.37525 5.18767H19.6253C20.2814 5.18767 20.8126 5.71907 20.8126 6.37503L20.8129 15.2814ZM17.2505 12.3127C17.2505 12.6393 16.9863 12.9064 16.6568 12.9064L8.34428 12.9063C8.01476 12.9063 7.75053 12.6391 7.75053 12.3126C7.75053 11.986 8.01476 11.7188 8.34428 11.7188H16.6568C16.9863 11.7189 17.2505 11.9861 17.2505 12.3127ZM7.75053 9.34394C7.75053 9.01735 8.01476 8.75019 8.34428 8.75019H13.0943C13.4238 8.75019 13.688 9.01735 13.688 9.34394C13.688 9.67053 13.4238 9.93769 13.0943 9.93769L8.34428 9.93755C8.01462 9.93755 7.75039 9.67039 7.75039 9.34395L7.75053 9.34394Z" fill="#052D68"/>
</svg>
