<svg width="23" height="23" viewBox="0 0 23 23" fill="none" xmlns="http://www.w3.org/2000/svg">
<path d="M16.4958 11.5959C15.6471 10.8375 14.8392 10.0973 14.0718 9.37505C13.3044 8.65283 12.6325 7.94915 12.0558 7.26401C11.4793 6.57888 11.0188 5.9157 10.6746 5.2745C10.3304 4.63327 10.1583 4.01401 10.1583 3.41672C10.1583 2.4822 10.4762 1.69787 11.1121 1.06374C11.748 0.429613 12.5345 0.112549 13.4717 0.112549C14.0072 0.112549 14.5412 0.261507 15.0739 0.559424C15.6065 0.857341 16.0805 1.25908 16.4958 1.76463C16.911 1.25908 17.385 0.857341 17.9176 0.559424C18.4503 0.261507 18.9843 0.112549 19.5198 0.112549C20.457 0.112549 21.2435 0.429613 21.8794 1.06374C22.5153 1.69787 22.8333 2.4822 22.8333 3.41672C22.8333 4.01401 22.6611 4.63327 22.3169 5.2745C21.9727 5.9157 21.5122 6.57888 20.9357 7.26401C20.3591 7.94915 19.6855 8.65437 18.9149 9.37968C18.1444 10.105 17.338 10.8437 16.4958 11.5959ZM16.4958 9.34797C17.6874 8.26463 18.7708 7.19033 19.7458 6.12505C20.7208 5.05977 21.2083 4.15699 21.2083 3.41672C21.2083 2.92158 21.0516 2.51793 20.7382 2.20577C20.4248 1.89362 20.0196 1.73755 19.5225 1.73755C19.22 1.73755 18.9197 1.80977 18.6218 1.95422C18.3239 2.09866 18.0214 2.36949 17.7145 2.76672L16.4958 4.2563L15.277 2.76672C14.9701 2.36949 14.6676 2.09866 14.3697 1.95422C14.0718 1.80977 13.7715 1.73755 13.469 1.73755C12.9719 1.73755 12.5667 1.89362 12.2533 2.20577C11.9399 2.51793 11.7833 2.92158 11.7833 3.41672C11.7833 4.15699 12.2708 5.05977 13.2458 6.12505C14.2208 7.19033 15.3041 8.26463 16.4958 9.34797ZM14.3291 22.3209L5.90617 19.9105V21.4542H0.083252V10.7834H8.452L15.3583 13.3834C15.8458 13.5639 16.2565 13.8573 16.5905 14.2636C16.9246 14.6698 17.0916 15.2521 17.0916 16.0105H20.1791C20.9374 16.0105 21.5694 16.2813 22.0749 16.823C22.5805 17.3646 22.8333 18.0959 22.8333 19.0167V19.7209L14.3291 22.3209ZM1.70825 19.8292H4.25409V12.4084H1.70825V19.8292ZM14.2208 20.6417L21.1541 18.5292C21.0458 18.1862 20.9103 17.9514 20.7478 17.825C20.5853 17.6987 20.3958 17.6355 20.1791 17.6355H14.5728C14.0312 17.6355 13.5301 17.5994 13.0697 17.5271C12.6093 17.4549 12.1714 17.3556 11.7562 17.2292L9.56242 16.5521L10.1583 14.9813L12.1353 15.6313C12.5867 15.7757 13.0155 15.875 13.4218 15.9292C13.828 15.9834 14.4735 16.0105 15.3583 16.0105C15.3583 15.7938 15.3176 15.5816 15.2364 15.374C15.1551 15.1664 15.0152 15.0174 14.8166 14.9271L8.18117 12.4084H5.90617V18.2042L14.2208 20.6417Z" fill="#666666"/>
</svg>
