<svg width="23" height="23" viewBox="0 0 23 23" fill="none" xmlns="http://www.w3.org/2000/svg">
<path d="M16.4125 11.4833C15.5639 10.725 14.7559 9.98472 13.9885 9.2625C13.2212 8.54028 12.5492 7.8366 11.9726 7.15146C11.396 6.46633 10.9356 5.80315 10.5913 5.16195C10.2471 4.52072 10.075 3.90146 10.075 3.30417C10.075 2.36965 10.393 1.58532 11.0289 0.951194C11.6648 0.317065 12.4513 0 13.3884 0C13.9239 0 14.458 0.148958 14.9906 0.446875C15.5233 0.744792 15.9972 1.14653 16.4125 1.65208C16.8278 1.14653 17.3017 0.744792 17.8344 0.446875C18.367 0.148958 18.9011 0 19.4366 0C20.3737 0 21.1602 0.317065 21.7962 0.951194C22.4321 1.58532 22.75 2.36965 22.75 3.30417C22.75 3.90146 22.5779 4.52072 22.2337 5.16195C21.8894 5.80315 21.429 6.46633 20.8524 7.15146C20.2758 7.8366 19.6022 8.54182 18.8317 9.26713C18.0611 9.99242 17.2547 10.7312 16.4125 11.4833ZM16.4125 9.23542C17.6042 8.15208 18.6875 7.07778 19.6625 6.0125C20.6375 4.94722 21.125 4.04444 21.125 3.30417C21.125 2.80903 20.9683 2.40538 20.6549 2.09322C20.3416 1.78107 19.9363 1.625 19.4393 1.625C19.1367 1.625 18.8365 1.69722 18.5385 1.84167C18.2406 1.98611 17.9382 2.25694 17.6313 2.65417L16.4125 4.14375L15.1938 2.65417C14.8868 2.25694 14.5844 1.98611 14.2865 1.84167C13.9885 1.69722 13.6883 1.625 13.3857 1.625C12.8887 1.625 12.4834 1.78107 12.1701 2.09322C11.8567 2.40538 11.7 2.80903 11.7 3.30417C11.7 4.04444 12.1875 4.94722 13.1625 6.0125C14.1375 7.07778 15.2208 8.15208 16.4125 9.23542ZM14.2458 22.2083L5.82292 19.7979V21.3417H0V10.6708H8.36875L15.275 13.2708C15.7625 13.4514 16.1733 13.7448 16.5073 14.151C16.8413 14.5573 17.0083 15.1396 17.0083 15.8979H20.0958C20.8542 15.8979 21.4861 16.1688 21.9917 16.7104C22.4972 17.2521 22.75 17.9833 22.75 18.9042V19.6083L14.2458 22.2083ZM1.625 19.7167H4.17083V12.2958H1.625V19.7167ZM14.1375 20.5292L21.0708 18.4167C20.9625 18.0736 20.8271 17.8389 20.6646 17.7125C20.5021 17.5861 20.3125 17.5229 20.0958 17.5229H14.4896C13.9479 17.5229 13.4469 17.4868 12.9865 17.4146C12.526 17.3424 12.0882 17.2431 11.6729 17.1167L9.47917 16.4396L10.075 14.8688L12.0521 15.5188C12.5035 15.6632 12.9323 15.7625 13.3385 15.8167C13.7448 15.8708 14.3903 15.8979 15.275 15.8979C15.275 15.6813 15.2344 15.4691 15.1531 15.2615C15.0719 15.0538 14.9319 14.9049 14.7333 14.8146L8.09792 12.2958H5.82292V18.0917L14.1375 20.5292Z" fill="#666666"/>
</svg>
