<svg width="23" height="23" viewBox="0 0 23 23" fill="none" xmlns="http://www.w3.org/2000/svg">
<path d="M11.1667 17.8666C6.24063 17.8666 2.2334 13.8594 2.2334 8.93332C2.2334 4.00723 6.24063 0 11.1667 0C11.5776 0 11.9111 0.3335 11.9111 0.744401C11.9111 1.1553 11.5776 1.4888 11.1667 1.4888C7.06186 1.4888 3.72239 4.82827 3.72239 8.93313C3.72239 13.038 7.06186 16.3775 11.1667 16.3775C15.2716 16.3775 18.6111 13.038 18.6111 8.93313C18.6111 8.52223 18.9438 8.18873 19.3555 8.18873C19.7671 8.18873 20.0999 8.52223 20.0999 8.93313C20.0999 13.8592 16.0926 17.8665 11.1665 17.8665L11.1667 17.8666ZM11.1667 1.48899C10.9732 1.48899 10.7796 1.40711 10.6382 1.27314C10.5042 1.13169 10.4223 0.938139 10.4223 0.744605C10.4223 0.551059 10.5042 0.357505 10.6382 0.216072C10.9211 -0.0593556 11.4199 -0.0593556 11.6953 0.216072C11.8293 0.357524 11.9111 0.551071 11.9111 0.744605C11.9111 0.938152 11.8293 1.13171 11.6953 1.27314C11.5538 1.40711 11.3603 1.48899 11.1668 1.48899H11.1667ZM18.0454 6.082C17.8891 5.7024 18.0669 5.26307 18.4474 5.1068C18.8271 4.95052 19.2664 5.12911 19.4226 5.50886C19.5789 5.88846 19.4003 6.32779 19.0206 6.48406C18.9237 6.52133 18.827 6.54363 18.7377 6.54363C18.4399 6.54363 18.1638 6.3724 18.0454 6.08213L18.0454 6.082ZM16.4292 3.66994C16.1388 3.37955 16.1388 2.90311 16.4292 2.61284C16.7203 2.32245 17.1893 2.32245 17.4788 2.61284C17.77 2.90322 17.77 3.37967 17.4788 3.66994C17.3381 3.81139 17.1446 3.88579 16.9585 3.88579C16.7649 3.88579 16.5789 3.81139 16.4292 3.66994ZM14.0179 2.05451C13.6376 1.89822 13.4596 1.45891 13.6159 1.07931C13.7721 0.699703 14.204 0.520972 14.5911 0.677242C14.9707 0.833524 15.1494 1.27284 14.9856 1.65244C14.874 1.93535 14.5911 2.10657 14.3008 2.10657C14.204 2.10657 14.1072 2.09174 14.0179 2.05448L14.0179 2.05451ZM19.3556 9.6775C19.162 9.6775 18.9678 9.59562 18.827 9.46165C18.6923 9.32019 18.6112 9.12665 18.6112 8.93311C18.6112 8.73958 18.6923 8.54601 18.827 8.40458C19.11 8.12915 19.6087 8.12915 19.8841 8.40458C20.0181 8.54603 20.1 8.73958 20.1 8.93311C20.1 9.12665 20.0181 9.32021 19.8841 9.46165C19.7427 9.59562 19.5491 9.6775 19.3556 9.6775ZM14.1436 11.1664C14.032 11.1664 13.9181 11.1411 13.8116 11.0883L10.8339 9.59936C10.5815 9.47287 10.4223 9.21526 10.4223 8.93309V3.7221C10.4223 3.31119 10.7558 2.97769 11.1667 2.97769C11.5776 2.97769 11.9111 3.31119 11.9111 3.7221V8.47303L14.4772 9.75646C14.8449 9.94029 14.9937 10.3877 14.8099 10.7555C14.6797 11.0161 14.4169 11.1664 14.1437 11.1664L14.1436 11.1664Z" fill="#052D68"/>
</svg>
