<svg width="20" height="20" viewBox="0 0 20 20" fill="none" xmlns="http://www.w3.org/2000/svg">
<g clip-path="url(#clip0_464_1599)">
<path fill-rule="evenodd" clip-rule="evenodd" d="M7.5 14.1667L10 11.7167C9.675 11.6833 9.43333 11.6667 9.16667 11.6667C6.94167 11.6667 2.5 12.7833 2.5 15V16.6667H10L7.5 14.1667ZM9.16667 9.99999C11.0083 9.99999 12.5 8.50832 12.5 6.66665C12.5 4.82499 11.0083 3.33332 9.16667 3.33332C7.325 3.33332 5.83333 4.82499 5.83333 6.66665C5.83333 8.50832 7.325 9.99999 9.16667 9.99999Z" fill="#052D68"/>
<path fill-rule="evenodd" clip-rule="evenodd" d="M12.8917 17.0833L10 14.1666L11.1667 12.9916L12.8917 14.725L17.1667 10.4166L18.3333 11.5916L12.8917 17.0833Z" fill="#052D68"/>
</g>
<defs>
<clipPath id="clip0_464_1599">
<rect width="20" height="20" fill="white"/>
</clipPath>
</defs>
</svg>
